<?xml version="1.0" standalone="no"?>
<!DOCTYPE svg PUBLIC "-//W3C//DTD SVG 20010904//EN"
 "http://www.w3.org/TR/2001/REC-SVG-20010904/DTD/svg10.dtd">
<svg version="1.0" xmlns="http://www.w3.org/2000/svg"
 width="720.000000pt" height="720.000000pt" viewBox="0 0 720.000000 720.000000"
 preserveAspectRatio="xMidYMid meet">
<metadata>
Created by potrace 1.11, written by Peter Selinger 2001-2013
</metadata>
<g transform="translate(0.000000,720.000000) scale(0.100000,-0.100000)"
fill="#000000" stroke="none">
<path d="M855 7133 c13 -162 17 -188 37 -251 35 -115 69 -172 175 -300 29 -35
53 -67 53 -73 0 -5 5 -9 10 -9 6 0 5 8 -2 20 -11 17 -10 22 1 29 10 7 4 18
-29 47 -98 88 -138 148 -175 264 -22 71 -45 240 -32 240 2 0 24 -20 49 -43 62
-60 246 -153 361 -182 420 -106 767 -24 1110 262 88 73 70 82 -20 10 -243
-193 -383 -257 -611 -278 -214 -19 -407 2 -552 62 -195 81 -305 159 -330 234
-8 24 -18 35 -31 35 -18 0 -19 -5 -14 -67z"/>
<path d="M6330 7191 c0 -5 7 -15 16 -22 21 -17 193 -243 221 -289 75 -124 260
-481 292 -565 46 -117 79 -266 121 -531 36 -234 63 -321 148 -489 64 -125 67
-128 70 -93 2 28 -7 59 -38 120 -55 112 -89 237 -155 566 -31 152 -71 322 -90
378 -39 118 -114 265 -337 658 -56 100 -203 276 -230 276 -10 0 -18 -4 -18 -9z"/>
<path d="M1171 6445 c93 -136 241 -248 408 -311 47 -18 90 -39 95 -47 11 -17
-26 -116 -100 -273 -53 -110 -179 -307 -277 -434 -129 -166 -303 -313 -474
-398 -91 -46 -104 -57 -175 -154 -29 -39 -75 -85 -112 -112 -67 -48 -166 -96
-197 -96 -36 0 -277 137 -309 175 -16 19 -30 19 -30 1 0 -12 199 -149 270
-186 19 -10 196 -120 219 -136 2 -2 -4 -40 -13 -86 -25 -132 -22 -360 7 -474
26 -103 61 -171 73 -140 8 21 -5 92 -36 191 -29 92 -33 304 -8 376 10 26 24
88 33 138 21 121 58 221 110 301 56 84 95 121 175 163 170 91 249 135 290 163
25 17 95 64 155 105 166 113 225 157 283 213 82 78 154 189 77 118 -17 -15
-70 -57 -120 -92 -49 -36 -115 -84 -145 -108 -77 -60 -171 -124 -175 -120 -1
1 46 58 105 125 102 117 195 257 278 418 48 93 142 326 142 352 0 23 -11 28
-155 62 -27 7 -67 23 -87 37 -21 13 -40 24 -42 24 -20 0 -117 77 -200 158 -87
85 -95 91 -65 47z"/>
<path d="M3433 6459 c-7 -7 -13 -17 -13 -21 0 -4 -16 -29 -35 -55 -19 -27 -49
-68 -67 -93 -18 -25 -53 -70 -79 -100 -167 -199 -370 -468 -499 -660 -35 -52
-71 -103 -81 -113 -9 -10 -40 -58 -70 -108 -29 -50 -57 -93 -62 -96 -5 -3 -25
11 -46 31 -42 41 -74 50 -47 14 41 -56 56 -85 56 -105 0 -28 -47 -109 -173
-301 -115 -176 -111 -170 -168 -272 -23 -41 -58 -100 -77 -130 -58 -92 -143
-259 -167 -329 l-22 -66 -7 36 c-3 20 -2 48 4 63 5 15 25 87 44 161 53 202 76
274 112 346 33 67 138 209 244 329 67 77 93 115 88 131 -4 11 -261 -255 -359
-371 -61 -73 -104 -142 -115 -185 -10 -39 -62 -155 -70 -155 -4 0 -3 21 0 48
16 114 16 119 1 67 -10 -33 -17 -115 -21 -240 -5 -172 -4 -198 15 -270 42
-158 151 -342 256 -432 112 -96 274 -150 418 -139 108 8 180 32 233 79 52 46
52 57 0 26 -46 -27 -52 -21 -97 73 -30 66 -34 81 -31 148 9 266 4 539 -11 605
-8 39 -23 135 -32 215 -9 80 -21 166 -26 192 -18 79 -3 278 20 278 27 0 215
-374 242 -480 11 -47 5 -64 -34 -82 -29 -14 -30 -17 -12 -22 11 -4 41 -18 68
-31 52 -27 53 -26 33 33 -12 32 -13 65 -6 159 14 193 52 271 177 359 95 69
200 113 296 125 75 10 92 9 161 -10 115 -32 190 -90 270 -211 47 -72 46 -57
-5 45 -50 100 -118 171 -206 214 -47 23 -67 41 -84 71 -13 22 -26 40 -29 40
-3 0 -19 -13 -35 -30 -22 -23 -34 -28 -54 -24 -27 7 -79 50 -70 59 3 2 55 5
115 6 92 1 117 -3 157 -21 52 -23 92 -23 92 0 0 28 -55 45 -145 45 -124 -1
-252 -13 -264 -25 -5 -5 -17 -10 -25 -11 -11 0 -12 -2 -3 -6 6 -2 12 -13 12
-23 0 -25 -17 -36 -81 -50 -42 -9 -61 -10 -77 -1 -11 6 -42 11 -67 11 -25 0
-55 5 -66 10 -26 14 -25 -5 1 -45 11 -16 20 -33 20 -37 0 -4 -34 -32 -76 -63
-54 -40 -81 -54 -95 -50 -27 9 -179 123 -185 139 -8 22 98 209 193 342 5 5 13
19 20 30 6 10 16 18 22 17 6 -2 11 7 11 20 0 18 2 19 11 7 8 -12 9 -10 4 7 -4
14 1 28 13 40 24 24 91 106 141 173 22 30 55 72 73 94 18 21 31 40 28 41 -3 1
1 9 9 18 7 9 18 14 24 10 6 -3 7 -1 3 6 -5 8 25 46 82 104 50 51 108 113 129
139 44 53 90 92 96 81 3 -5 5 -47 6 -96 2 -77 18 -214 37 -303 l6 -31 -84 -6
c-102 -8 -185 -32 -217 -63 -29 -29 -26 -29 31 -4 44 19 196 50 248 50 27 0
29 -4 59 -112 56 -204 119 -385 167 -480 36 -72 148 -255 259 -423 50 -77 99
-154 109 -172 27 -54 186 -205 276 -265 74 -49 197 -105 207 -94 7 6 -58 55
-125 95 -137 81 -297 242 -420 423 -206 302 -304 499 -391 778 -33 107 -67
227 -76 265 -54 234 -67 317 -73 468 -6 127 -9 156 -19 146z m-1093 -1785 c25
-6 36 -16 51 -48 25 -55 24 -92 -1 -106 -12 -6 -30 -8 -41 -5 -26 9 -89 -3
-89 -16 0 -5 14 -12 30 -15 23 -5 30 -12 30 -31 0 -39 25 -87 66 -126 34 -32
37 -39 29 -63 -15 -41 -33 -41 -41 1 -8 42 -69 109 -109 119 -15 4 -38 1 -53
-6 -24 -12 -27 -19 -30 -71 -4 -78 22 -134 87 -185 28 -22 72 -48 98 -57 94
-32 117 -49 125 -91 12 -68 9 -134 -6 -140 -23 -9 -125 23 -183 58 -120 72
-215 195 -243 316 -12 53 -12 54 28 135 44 89 164 291 189 320 18 19 19 19 63
11z"/>
<path d="M6286 6423 c-34 -240 -87 -431 -146 -521 -57 -89 -153 -195 -207
-230 -69 -44 -83 -42 -84 11 -1 23 -5 53 -9 67 -6 17 -8 1 -7 -52 1 -42 -2
-80 -6 -84 -3 -4 -2 -15 4 -26 6 -10 12 -49 15 -86 3 -37 10 -114 15 -172 19
-213 28 -449 21 -610 l-7 -165 -48 60 c-115 145 -269 436 -372 705 -90 235
-87 215 -27 187 83 -39 176 -106 284 -206 65 -60 86 -62 42 -4 -38 51 -80 88
-134 120 -25 15 -70 44 -100 64 -30 20 -76 46 -101 57 -25 12 -51 27 -57 35
-18 21 -52 164 -52 216 1 55 21 145 42 186 29 57 51 142 44 170 l-7 28 -16
-29 c-8 -16 -28 -63 -45 -104 -16 -41 -51 -101 -76 -135 -26 -33 -70 -91 -97
-130 -27 -38 -77 -104 -110 -145 -33 -41 -87 -118 -120 -170 -68 -110 -94
-146 -103 -142 -7 3 -4 77 7 156 14 103 -8 43 -31 -84 -20 -110 -23 -156 -22
-380 0 -140 6 -304 13 -363 13 -121 63 -328 87 -365 9 -13 14 -26 12 -28 -13
-13 -121 45 -209 112 -150 115 -202 165 -285 278 -55 72 -74 92 -68 71 9 -37
76 -176 104 -215 11 -15 20 -33 20 -39 0 -24 51 -90 112 -145 96 -88 132 -109
67 -40 -53 57 -85 101 -77 109 2 3 17 -3 33 -12 17 -8 64 -33 107 -54 42 -21
83 -46 92 -55 15 -14 15 -18 -3 -40 -53 -67 -54 -239 -2 -350 29 -61 33 -66
56 -60 21 5 31 0 51 -24 27 -32 52 -38 73 -17 10 10 17 7 34 -15 32 -39 120
-43 190 -9 101 49 215 182 262 306 15 39 19 75 19 165 0 150 -22 212 -96 270
-68 54 -114 66 -210 52 -88 -13 -153 -43 -233 -107 -65 -54 -59 -60 -95 104
-21 98 -22 121 -17 365 3 192 9 273 20 307 35 111 216 375 341 498 98 97 85
101 126 -44 17 -61 20 -83 11 -97 -9 -14 -8 -18 2 -18 15 0 63 -111 165 -380
33 -85 71 -180 85 -210 14 -30 29 -68 32 -83 4 -15 11 -27 16 -27 5 0 9 -9 9
-19 0 -11 9 -40 20 -65 12 -28 17 -57 14 -74 -4 -19 -1 -32 10 -41 8 -7 13
-18 10 -24 -2 -7 7 -21 21 -31 14 -10 25 -25 25 -33 0 -10 7 -12 23 -8 16 5
18 4 8 -3 -11 -8 -10 -11 5 -15 16 -4 16 -5 -3 -6 -16 -1 -46 23 -100 80 -73
76 -96 109 -76 109 5 0 19 -7 31 -16 35 -24 26 -2 -15 38 -45 43 -71 50 -96
25 -17 -17 -28 -18 -85 -12 -81 9 -90 12 -97 36 -8 25 -18 24 -68 -5 -23 -13
-60 -29 -82 -36 -22 -7 -47 -18 -55 -25 -8 -6 -46 -29 -84 -50 -68 -37 -146
-99 -146 -116 0 -5 27 9 60 31 178 114 427 85 580 -69 60 -60 91 -116 118
-214 24 -86 22 -292 -3 -362 -24 -69 -76 -144 -121 -174 -44 -31 -52 -46 -27
-59 18 -10 124 6 139 21 4 4 -1 16 -10 26 -13 14 -15 24 -8 38 21 38 68 71
117 81 28 6 59 14 70 18 11 4 17 4 13 -1 -4 -4 0 -14 10 -22 16 -13 15 -14 -4
-8 -23 6 -42 -19 -23 -31 7 -4 -1 -19 -18 -38 -16 -17 -35 -44 -41 -59 -7 -17
-18 -27 -25 -24 -8 3 -31 -22 -57 -60 -24 -36 -49 -71 -54 -77 -25 -27 -39
-62 -42 -105 -8 -100 -18 -142 -47 -196 -29 -53 -80 -132 -100 -155 -13 -14
-29 -38 -37 -55 -29 -57 -157 -166 -236 -200 -98 -42 -267 -97 -349 -115 -49
-10 -128 -28 -175 -40 -110 -26 -184 -36 -410 -51 -212 -14 -443 -9 -480 10
-14 7 -90 56 -170 109 -187 123 -199 131 -299 187 -46 27 -104 66 -130 88 -85
72 -223 211 -282 285 l-59 74 20 28 c31 44 82 158 77 172 -3 9 -7 6 -13 -7
-17 -44 -86 -135 -146 -194 -34 -33 -66 -61 -70 -61 -4 0 -19 -11 -34 -25 -73
-67 -237 -114 -434 -122 -202 -9 -460 43 -622 124 -38 18 -68 29 -68 23 0 -5
5 -10 12 -10 6 0 9 -2 7 -5 -9 -8 -192 23 -254 44 -33 10 -94 33 -135 51 -41
17 -106 43 -145 57 -82 29 -131 59 -202 125 -75 69 -91 64 -69 -23 13 -49 65
-148 99 -188 31 -36 30 -43 -4 -26 -100 51 -198 142 -222 205 -4 11 -6 11 -6
2 -3 -49 97 -160 185 -205 27 -14 80 -44 119 -66 38 -23 73 -41 78 -41 5 0
-17 23 -48 52 -76 70 -145 167 -145 206 0 17 4 33 8 36 5 3 33 -13 63 -34 30
-21 102 -62 160 -90 200 -97 364 -183 385 -201 11 -11 23 -19 27 -19 11 0 63
-58 113 -127 78 -107 152 -279 154 -356 0 -12 -26 -29 -87 -59 -49 -23 -121
-61 -161 -85 -41 -23 -79 -43 -86 -43 -18 0 -291 254 -369 345 -94 107 -122
154 -154 252 l-27 83 -18 -72 c-9 -40 -17 -98 -18 -129 0 -71 24 -234 44 -294
17 -50 75 -166 103 -206 67 -96 186 -205 281 -255 54 -29 335 -120 497 -162
l109 -29 22 -109 c12 -60 28 -154 35 -209 18 -152 32 -143 25 15 -6 133 -19
229 -37 276 -21 58 82 13 280 -120 383 -259 762 -398 1222 -447 160 -17 388
-7 559 24 153 28 281 60 325 81 81 39 187 86 193 86 4 0 70 29 147 64 77 36
185 81 239 102 l99 36 86 -25 c47 -14 116 -31 154 -37 67 -12 91 -23 40 -19
-16 1 -64 1 -108 0 l-80 -3 45 -15 c25 -8 83 -18 130 -23 47 -4 99 -13 115
-20 19 -7 54 -9 95 -5 50 5 70 3 85 -9 20 -15 19 -16 -13 -46 -32 -31 -69 -90
-55 -90 4 0 23 15 43 34 19 19 47 38 61 41 22 6 32 -1 68 -42 22 -26 41 -51
41 -55 0 -9 -55 -26 -114 -34 -39 -5 -45 -9 -31 -17 20 -11 188 18 214 37 55
41 144 142 169 192 45 90 82 185 82 212 0 13 14 41 30 62 17 21 30 41 30 44 0
14 -38 4 -55 -14 -88 -97 -451 -260 -579 -260 l-51 0 83 34 c163 68 348 216
439 351 39 58 61 105 49 105 -3 0 -26 -27 -50 -60 -67 -90 -102 -125 -191
-183 -178 -119 -203 -127 -389 -128 -179 0 -246 14 -391 86 -105 51 -191 117
-180 135 3 5 -5 14 -17 21 -22 12 -22 11 -8 -7 8 -10 -19 9 -60 43 -65 52
-107 97 -164 172 -6 8 16 -4 49 -26 81 -55 111 -69 193 -92 150 -41 251 -37
428 20 218 70 464 284 634 552 36 57 78 119 94 138 16 20 38 58 50 85 36 82
93 188 115 214 l20 25 1 -38 c0 -21 4 -36 9 -32 5 3 12 -5 14 -17 3 -14 5 -8
6 15 0 21 -11 109 -25 195 -15 92 -29 233 -34 342 -5 102 -12 200 -16 217 -6
32 -5 33 57 62 182 83 223 105 206 109 -10 2 -48 -8 -85 -23 -69 -28 -157 -46
-179 -38 -8 3 -13 22 -13 47 0 22 -7 91 -14 151 -10 72 -17 268 -21 565 -6
381 -10 474 -26 569 -29 176 -29 177 44 140 76 -39 144 -99 203 -179 111 -149
145 -221 203 -421 122 -425 133 -457 159 -455 20 1 33 -38 57 -174 46 -249
194 -596 374 -875 14 -22 28 -42 31 -45 3 -3 24 -30 46 -60 38 -51 118 -136
158 -169 42 -32 18 4 -80 124 -58 72 -110 140 -117 152 -7 12 -29 46 -49 75
-22 31 -46 82 -57 123 -11 39 -49 129 -85 201 -71 143 -116 268 -140 386 -44
217 -67 299 -93 329 -8 9 -19 47 -24 84 -9 56 -7 87 10 188 11 67 27 169 35
227 27 195 101 356 228 499 52 59 61 95 28 106 -35 11 -186 142 -224 194 -43
59 -83 144 -135 289 -21 59 -57 146 -80 194 -22 48 -46 99 -51 113 -15 38 -27
30 -34 -22z m96 -320 c56 -126 68 -153 68 -159 0 -3 7 -20 15 -37 22 -49 85
-221 85 -233 0 -7 -72 -13 -222 -17 -123 -4 -236 -10 -253 -14 -16 -4 -48 -7
-70 -7 -22 -1 -43 -5 -46 -10 -4 -5 -13 -6 -20 -3 -8 2 21 21 64 41 42 20 77
40 77 46 0 5 9 19 20 30 11 11 17 26 14 35 -4 8 1 17 10 21 9 3 16 10 16 16 0
5 14 29 30 53 17 24 30 48 30 53 0 5 7 15 15 22 8 7 13 15 10 19 -2 4 5 22 16
39 10 18 19 38 19 45 1 19 57 80 68 73 6 -4 8 3 4 16 -4 16 -2 19 8 13 10 -6
12 -4 7 8 -3 10 -4 17 -1 17 3 0 19 -30 36 -67z m-1294 -1816 c3 -12 -3 -17
-21 -17 -31 0 -40 10 -25 27 15 18 42 12 46 -10z m110 -8 c2 -14 -4 -31 -12
-39 -12 -9 -16 -32 -16 -86 0 -68 -2 -75 -26 -91 -35 -23 -124 -52 -140 -46
-7 2 -21 32 -32 66 l-19 62 21 21 c11 12 29 33 39 48 15 21 26 26 63 26 33 0
46 4 51 18 19 53 66 67 71 21z m732 -895 c0 -73 -19 -124 -53 -147 -47 -30
-162 -61 -232 -61 -110 -1 -112 1 -68 81 51 96 62 107 99 93 16 -7 52 -16 79
-20 28 -5 60 -12 73 -16 14 -4 22 -2 22 6 0 7 16 32 35 56 22 26 33 48 29 58
-3 9 -1 16 5 16 7 0 11 -24 11 -66z m-4203 -314 c92 -43 199 -87 237 -96 64
-16 72 -16 120 0 113 35 280 15 327 -40 42 -49 23 -161 -32 -189 -35 -19 -90
-19 -132 -1 -18 7 -113 19 -212 26 -161 11 -186 11 -234 -4 -82 -24 -84 -24
-104 46 -10 34 -27 74 -37 88 -11 15 -37 67 -60 116 -22 49 -45 97 -50 106
-23 42 -15 40 177 -52z m477 -360 c32 -17 72 -30 87 -30 16 0 29 -4 29 -8 0
-5 18 -21 39 -38 36 -26 40 -33 39 -73 0 -32 5 -48 19 -60 11 -9 23 -24 26
-33 4 -10 13 -18 22 -18 8 0 15 -5 15 -11 0 -7 8 -18 18 -25 10 -8 12 -13 5
-14 -8 0 -13 -14 -13 -35 0 -39 -25 -85 -46 -85 -8 0 -20 -16 -28 -35 -10 -23
-20 -33 -29 -29 -8 3 -17 -1 -20 -9 -3 -8 -31 -23 -62 -32 -52 -17 -68 -17
-183 -5 -163 16 -215 30 -340 91 -89 43 -323 191 -374 236 -17 15 -16 17 3 45
12 16 23 27 26 24 3 -3 17 6 31 20 15 13 32 24 38 24 6 0 23 9 38 21 14 11 30
17 36 14 5 -3 10 -2 10 3 0 5 24 17 53 26 176 59 281 76 417 70 69 -4 96 -10
144 -34z m786 -377 c58 -21 122 -59 244 -145 112 -79 282 -167 370 -193 164
-46 462 -58 663 -25 93 15 132 27 206 64 51 24 108 47 127 51 31 6 37 3 52
-23 10 -17 54 -54 98 -84 43 -29 79 -56 80 -59 0 -3 -33 -16 -74 -27 -41 -12
-137 -52 -213 -88 -149 -71 -365 -147 -533 -189 -62 -15 -114 -34 -126 -46
-44 -41 -259 -50 -599 -25 -222 16 -236 20 -545 127 -269 93 -392 149 -470
214 -30 25 -81 67 -112 92 -32 25 -58 50 -58 55 0 4 44 8 98 8 140 1 226 14
323 52 126 48 189 92 189 130 0 36 55 105 93 117 74 23 109 21 187 -6z"/>
<path d="M535 5839 c-160 -63 -195 -69 -374 -69 -136 0 -161 -2 -161 -15 0
-13 25 -15 168 -15 l167 0 160 55 c172 59 193 63 201 40 19 -50 -75 -240 -181
-365 -138 -164 -268 -250 -432 -286 l-83 -19 0 -98 0 -98 57 6 c197 23 342 96
485 242 73 76 114 135 181 268 44 87 127 295 127 320 0 20 -43 53 -85 64 -69
19 -124 11 -230 -30z"/>
<path d="M3045 5710 c-3 -6 1 -7 9 -4 18 7 21 14 7 14 -6 0 -13 -4 -16 -10z"/>
<path d="M6947 5583 c-25 -24 9 -311 53 -450 21 -69 93 -219 116 -243 8 -8 30
-33 49 -55 34 -39 35 -40 35 -14 0 15 -7 32 -16 40 -38 31 -94 191 -94 268 l0
56 53 -54 c37 -39 53 -49 55 -38 3 13 -39 79 -68 107 -32 32 -78 129 -135 285
-39 108 -39 108 -48 98z"/>
<path d="M2761 5461 c-1 -8 -8 -23 -18 -33 -9 -10 -14 -20 -11 -23 8 -9 40 45
34 58 -3 8 -5 7 -5 -2z"/>
<path d="M2715 5380 c-3 -5 -1 -10 4 -10 6 0 11 5 11 10 0 6 -2 10 -4 10 -3 0
-8 -4 -11 -10z"/>
<path d="M3106 5241 c-4 -5 3 -7 14 -4 23 6 26 13 6 13 -8 0 -17 -4 -20 -9z"/>
<path d="M3336 4949 c-132 -54 -242 -175 -286 -316 -17 -55 -18 -74 -9 -150 5
-48 15 -106 21 -128 14 -48 68 -135 83 -133 20 3 91 -15 113 -29 12 -7 21 -21
20 -30 -4 -24 35 -34 67 -17 33 17 65 18 65 3 0 -21 81 -2 124 28 54 38 134
146 170 230 38 88 46 204 22 323 -25 122 -60 181 -132 219 -53 29 -187 29
-258 0z m132 -211 c15 -15 16 -50 1 -65 -7 -7 -4 -21 11 -45 11 -20 21 -53 22
-73 1 -33 -4 -43 -38 -71 -48 -41 -108 -69 -129 -61 -21 9 -36 51 -40 117 -5
64 7 83 73 111 33 14 42 23 42 43 0 23 23 56 39 56 4 0 12 -5 19 -12z m-113
-28 c9 -15 -14 -40 -36 -40 -24 0 -33 18 -19 35 14 17 46 20 55 5z m55 -460
c0 -5 -5 -10 -11 -10 -5 0 -7 5 -4 10 3 6 8 10 11 10 2 0 4 -4 4 -10z"/>
<path d="M884 4885 c-50 -30 -89 -84 -110 -154 -16 -55 -10 -81 10 -46 6 11
41 50 79 86 68 67 79 83 52 73 -28 -11 -15 15 15 31 17 9 30 20 30 25 0 17
-34 11 -76 -15z"/>
<path d="M5225 4892 l-50 -16 92 -7 c80 -5 102 -11 165 -43 l73 -37 -45 41
c-25 22 -57 47 -72 55 -42 23 -107 26 -163 7z"/>
<path d="M1841 4594 c0 -11 3 -14 6 -6 3 7 2 16 -1 19 -3 4 -6 -2 -5 -13z"/>
<path d="M6932 4555 c3 -22 11 -87 17 -145 16 -145 30 -227 46 -280 7 -25 21
-85 30 -135 26 -146 62 -246 121 -337 58 -90 76 -82 27 12 -17 33 -26 66 -25
89 1 20 2 52 3 71 11 211 20 303 34 329 18 36 20 107 3 114 -10 4 -10 6 0 6
23 2 12 21 -13 21 -14 0 -25 5 -25 10 0 6 -10 10 -21 10 -17 0 -19 3 -10 14 9
11 6 17 -14 30 -14 10 -25 12 -25 6 0 -6 -5 -8 -11 -4 -6 3 -9 15 -6 25 3 11
1 19 -4 19 -5 0 -9 6 -9 14 0 7 -10 24 -22 38 -13 14 -32 41 -42 61 -10 20
-28 44 -39 54 -19 18 -19 17 -15 -22z m168 -215 c0 -5 -4 -10 -10 -10 -5 0
-10 5 -10 10 0 6 5 10 10 10 6 0 10 -4 10 -10z"/>
<path d="M1050 4493 c-18 -20 -50 -73 -72 -117 -38 -78 -39 -84 -35 -162 3
-51 12 -98 25 -128 32 -71 102 -166 123 -166 25 0 24 13 -2 36 -43 38 -62 101
-66 224 -5 111 0 146 40 295 2 6 9 20 15 33 18 32 9 27 -28 -15z"/>
<path d="M743 4355 c0 -22 2 -30 4 -17 2 12 2 30 0 40 -3 9 -5 -1 -4 -23z"/>
<path d="M550 4223 c0 -21 85 -123 130 -157 14 -11 6 1 -16 25 -23 24 -58 66
-78 92 -20 27 -36 45 -36 40z"/>
<path d="M1265 3806 c-27 -41 -197 -136 -243 -136 -11 0 -26 -7 -33 -16 -11
-14 -10 -18 6 -30 10 -8 35 -14 54 -14 45 0 153 69 180 116 11 19 24 34 29 34
5 0 14 -26 21 -57 15 -74 72 -160 115 -172 18 -4 47 -6 66 -3 32 5 34 3 21
-12 -8 -9 -12 -18 -10 -19 17 -13 119 -44 124 -38 5 9 -64 61 -82 61 -19 0
-141 161 -181 237 -20 40 -40 73 -44 73 -4 0 -15 -11 -23 -24z"/>
<path d="M5770 3819 c0 -5 5 -7 10 -4 6 3 10 8 10 11 0 2 -4 4 -10 4 -5 0 -10
-5 -10 -11z"/>
<path d="M6570 3730 c0 -5 5 -10 10 -10 6 0 10 5 10 10 0 6 -4 10 -10 10 -5 0
-10 -4 -10 -10z"/>
<path d="M6600 3717 c0 -11 -8 -17 -21 -17 -19 0 -21 -5 -17 -42 3 -24 7 -50
10 -58 2 -8 3 -12 1 -7 -13 21 -21 -1 -27 -65 -6 -81 -20 -187 -35 -263 -5
-27 -10 -73 -10 -102 -1 -46 2 -54 31 -76 30 -24 32 -29 29 -81 -1 -31 1 -56
6 -56 11 0 33 50 33 76 0 31 18 40 35 18 8 -11 15 -15 15 -11 0 5 18 -5 39
-22 44 -35 54 -60 96 -230 14 -58 27 -107 30 -109 3 -3 5 17 5 44 0 69 -44
290 -79 399 -78 240 -107 358 -117 480 -10 125 -10 124 -17 132 -4 3 -7 -1 -7
-10z m-3 -99 c-2 -13 -4 -3 -4 22 0 25 2 35 4 23 2 -13 2 -33 0 -45z m-17
-338 c5 0 7 7 4 15 -4 8 -1 15 5 15 7 0 11 -20 11 -51 0 -27 -4 -48 -9 -45 -5
3 -7 16 -3 29 5 20 4 21 -11 8 -14 -11 -17 -11 -17 0 0 8 -3 25 -6 39 -5 21
-4 22 6 8 6 -10 15 -18 20 -18z m-6 -176 c3 -8 2 -12 -4 -9 -6 3 -10 10 -10
16 0 14 7 11 14 -7z"/>
<path d="M3635 3713 c-34 -9 -44 -23 -65 -91 -54 -173 -25 -398 63 -499 35
-40 122 -93 152 -92 13 0 5 8 -25 24 -102 54 -160 142 -168 258 -4 64 -3 70
23 97 16 16 62 44 104 61 122 51 299 52 401 1 19 -9 38 -21 41 -25 3 -5 9 -8
13 -7 4 1 23 -12 42 -29 18 -17 38 -31 44 -31 16 0 58 -74 71 -123 9 -37 8
-50 -5 -75 -23 -45 -116 -119 -187 -149 -56 -24 -78 -27 -171 -28 -101 0 -105
-1 -70 -13 24 -9 69 -12 127 -10 79 3 100 8 166 39 41 20 91 51 111 68 43 37
97 131 125 216 36 107 36 113 7 140 -15 14 -31 25 -37 25 -5 0 -37 -18 -70
-40 l-61 -41 -42 44 c-36 38 -59 50 -156 84 -189 67 -195 68 -261 44 l-57 -20
-28 24 c-16 13 -37 42 -47 64 -26 59 -13 71 83 71 41 0 73 2 71 4 -7 6 -173
14 -194 9z"/>
<path d="M3840 3700 c0 -6 7 -10 15 -10 8 0 15 2 15 4 0 2 -7 6 -15 10 -8 3
-15 1 -15 -4z"/>
<path d="M552 3660 c0 -14 2 -19 5 -12 2 6 2 18 0 25 -3 6 -5 1 -5 -13z"/>
<path d="M6896 3347 c8 -22 49 -96 91 -165 42 -70 86 -145 99 -167 12 -22 43
-76 68 -120 l46 -80 0 136 0 136 -27 14 c-37 19 -87 62 -148 128 -27 29 -71
77 -98 105 l-47 51 16 -38z"/>
<path d="M6031 3140 c-1 -24 -20 -65 -21 -45 -1 20 -20 -21 -35 -75 -20 -68
-85 -210 -97 -210 -4 0 -8 -6 -8 -12 0 -18 -90 -148 -102 -148 -6 0 -7 -7 -4
-16 3 -8 2 -13 -3 -9 -10 5 -41 -48 -41 -70 0 -7 10 -34 21 -60 32 -72 23
-132 -28 -193 -61 -72 -173 -149 -231 -158 -34 -5 -42 -3 -56 17 -19 28 -20
71 -2 122 10 27 10 37 2 37 -6 0 -65 -23 -131 -50 -284 -120 -329 -133 -470
-133 -55 0 -110 3 -122 7 -18 6 -23 3 -23 -10 0 -10 3 -15 6 -11 3 3 24 -5 46
-19 24 -15 59 -27 87 -29 26 -2 74 -14 107 -27 32 -14 79 -30 104 -37 25 -7
67 -19 93 -28 33 -10 92 -16 185 -17 l137 -1 77 37 c85 40 159 103 221 188 23
30 77 98 121 150 44 52 85 101 91 108 5 7 16 19 23 27 6 7 12 18 12 24 0 18
33 81 42 81 5 0 6 5 2 12 -5 8 -1 9 12 4 14 -5 16 -4 8 4 -9 9 -11 62 -8 183
4 140 -9 446 -15 357z m-122 -514 c9 -10 8 -15 -2 -19 -8 -3 -13 3 -13 14 0
23 0 23 15 5z m-1 -48 c-7 -13 -11 -27 -10 -31 1 -5 -2 -6 -8 -2 -6 4 -4 15 6
31 20 30 29 32 12 2z m32 -52 c0 -2 -7 -7 -16 -10 -8 -3 -12 -2 -9 4 6 10 25
14 25 6z"/>
<path d="M3818 3023 c7 -3 16 -2 19 1 4 3 -2 6 -13 5 -11 0 -14 -3 -6 -6z"/>
<path d="M6880 2908 c0 -4 13 -29 28 -55 48 -82 158 -314 187 -393 23 -66 42
-206 45 -332 0 -12 8 -18 22 -18 21 0 21 1 15 171 -5 147 -4 168 8 152 13 -16
14 -11 15 43 0 59 -2 63 -62 145 -34 46 -78 102 -98 124 -65 74 -160 170 -160
163z"/>
<path d="M6097 2608 c6 -35 11 -44 17 -37 2 2 6 19 9 37 6 27 4 32 -13 32 -17
0 -19 -5 -13 -32z"/>
<path d="M6152 2605 c-10 -22 -9 -25 7 -25 14 0 17 6 13 25 -2 14 -5 25 -7 25
-1 0 -7 -11 -13 -25z"/>
<path d="M6194 2615 c-4 -8 -4 -21 -1 -29 3 -7 0 -19 -6 -25 -8 -8 -5 -11 13
-11 13 0 20 3 17 7 -4 3 2 12 13 20 30 21 26 53 -5 53 -14 0 -28 -7 -31 -15z"/>
<path d="M6060 2540 c0 -6 -8 -10 -17 -8 -12 2 -19 -4 -21 -19 -2 -14 2 -23
10 -23 7 0 22 -3 34 -6 18 -5 21 -1 20 27 -1 29 -26 57 -26 29z"/>
<path d="M6143 2522 c-4 -9 -11 -21 -17 -25 -6 -5 0 -6 14 -3 22 4 23 4 8 -8
-12 -8 -18 -27 -18 -50 0 -30 -4 -36 -21 -36 -15 0 -19 -4 -15 -16 3 -9 6 -18
6 -20 0 -3 6 -2 13 2 6 4 3 -2 -8 -13 -20 -20 -20 -20 -23 14 -2 18 -7 33 -13
33 -5 0 -9 8 -9 18 -1 16 -2 16 -15 -2 -8 -10 -21 -16 -29 -13 -18 7 -42 -28
-26 -38 5 -3 10 -12 10 -18 0 -8 -3 -7 -9 2 -5 7 -14 10 -20 7 -16 -10 -14
-26 3 -26 8 0 18 -5 22 -11 4 -8 0 -9 -15 -4 -22 7 -24 4 -35 -47 -4 -16 -13
-28 -22 -28 -10 0 -14 -7 -12 -22 2 -19 10 -24 43 -26 22 -2 46 -10 52 -19 7
-9 16 -14 19 -10 8 7 -20 37 -35 37 -6 0 -11 6 -11 14 0 15 37 32 47 22 4 -3
-1 -6 -10 -6 -25 0 -21 -15 7 -30 22 -11 28 -10 56 14 17 14 41 26 51 26 11 0
28 7 36 16 14 14 14 17 0 31 -14 14 -16 13 -26 -6 -7 -11 -19 -21 -27 -21 -9
0 -12 5 -8 13 6 9 4 9 -8 -1 -13 -10 -16 -9 -21 10 -6 22 6 38 31 38 6 0 12
-10 12 -22 l0 -21 23 21 c29 27 47 28 40 2 -3 -11 -1 -20 5 -20 12 0 26 30 23
49 -1 7 6 22 16 32 42 42 43 45 29 91 l-14 43 -1 -44 c-1 -51 -10 -51 -14 0
-2 29 -7 35 -32 40 -29 6 -28 7 10 10 22 1 53 3 70 4 18 1 31 7 33 16 2 11
-14 14 -78 16 -68 2 -82 0 -87 -15z m-67 -300 c-8 -9 -18 -13 -22 -10 -8 9 19
37 29 31 5 -3 2 -12 -7 -21z"/>
<path d="M6378 2477 c-60 -81 -120 -149 -126 -142 -3 2 1 11 8 20 8 10 9 15 2
15 -18 0 -34 -37 -19 -43 16 -6 -95 -118 -142 -143 -47 -25 -53 -35 -34 -56
15 -17 15 -23 -1 -76 -26 -85 -98 -229 -148 -298 -51 -68 -129 -138 -203 -181
-29 -17 -51 -38 -53 -49 -6 -42 178 -273 391 -491 99 -100 176 -187 172 -193
-3 -6 -30 -23 -58 -38 -49 -25 -60 -27 -182 -27 -90 0 -137 4 -153 13 -22 12
-23 12 -14 -5 6 -10 18 -26 29 -35 34 -31 207 -107 294 -130 82 -21 90 -21
200 -8 134 17 227 17 257 1 21 -11 22 -13 6 -49 -80 -179 -125 -339 -139 -489
-7 -68 -6 -73 12 -73 18 0 21 9 26 82 10 123 39 249 87 373 47 119 62 139 193
245 97 79 377 251 397 245 14 -4 17 4 19 51 l2 56 -38 -23 c-21 -13 -60 -38
-87 -56 -43 -29 -66 -40 -66 -30 0 2 20 39 45 82 53 93 96 208 121 325 15 68
19 127 19 295 0 116 -3 226 -8 245 -5 25 -4 31 3 20 8 -12 10 -9 8 14 -3 29
-31 57 -44 43 -4 -3 -1 -50 6 -103 25 -188 -10 -492 -75 -659 -33 -83 -114
-227 -136 -241 -6 -3 -3 11 6 33 47 109 48 113 50 308 1 124 7 217 17 267 15
75 14 88 -4 88 -12 0 -26 -39 -63 -185 -67 -258 -150 -420 -289 -561 -149
-151 -168 -184 -89 -153 37 15 185 50 189 46 10 -9 -158 -94 -244 -123 -77
-27 -113 -34 -174 -34 -87 0 -207 20 -264 45 l-39 17 73 23 c89 28 138 61 200
134 69 81 106 143 151 256 61 154 86 296 85 495 -1 271 -51 630 -110 787 -17
46 -23 75 -18 99 3 19 4 34 2 34 -2 0 -25 -28 -50 -63z m557 -1404 c-42 -124
-65 -157 -138 -193 -34 -17 -80 -33 -102 -37 -46 -7 -50 -15 50 102 69 79 118
158 173 271 l37 79 3 -72 c2 -56 -3 -89 -23 -150z m-500 130 c-4 -10 -20 -54
-36 -97 -30 -82 -74 -160 -110 -191 -19 -19 -21 -18 -65 26 l-45 45 50 33 c28
17 85 70 128 116 43 46 80 84 82 85 2 0 0 -8 -4 -17z"/>
<path d="M1460 2119 c0 -6 17 -45 39 -87 53 -107 191 -437 232 -554 18 -53 34
-96 36 -94 1 1 -2 40 -7 87 -6 46 -13 154 -17 240 -6 151 -7 158 -32 186 -14
15 -48 55 -76 88 -56 67 -104 112 -142 132 -31 16 -33 16 -33 2z"/>
<path d="M1370 2041 c0 -5 6 -12 13 -15 6 -3 2 -3 -10 0 -14 3 -36 -4 -60 -20
-21 -14 -44 -26 -51 -26 -8 0 -32 -16 -55 -35 -22 -19 -56 -38 -76 -42 -95
-19 -476 4 -492 29 -4 7 -115 8 -323 3 -258 -6 -316 -10 -316 -21 0 -8 6 -14
14 -14 7 0 26 -10 41 -22 l27 -21 -23 -13 c-24 -12 -24 -12 11 -23 33 -10 31
-10 -17 -6 l-53 6 0 -451 0 -450 42 0 c48 0 140 22 358 87 208 62 226 71 234
124 7 46 67 144 99 161 30 16 190 5 221 -16 37 -24 48 -77 32 -161 -17 -87
-44 -112 -157 -145 -84 -24 -168 -73 -230 -132 -90 -87 -191 -282 -236 -453
-41 -156 -93 -368 -93 -377 0 -5 290 -8 645 -8 l645 0 4 23 c3 12 10 45 15 72
6 28 29 151 52 275 38 206 41 238 40 385 0 125 -5 178 -21 240 -11 44 -20 89
-20 101 0 11 -9 47 -20 79 -11 32 -18 60 -16 63 3 2 21 -6 40 -18 34 -20 36
-21 36 -3 0 11 -29 63 -65 117 -62 93 -79 136 -54 136 6 0 9 -9 6 -20 -3 -11
-1 -18 4 -14 5 3 6 -3 2 -13 -5 -14 -2 -13 17 5 13 12 20 25 17 29 -4 3 -7 1
-7 -6 0 -7 -5 -9 -10 -6 -15 9 9 37 27 31 9 -4 13 5 13 30 0 19 -4 33 -8 30
-5 -3 -7 7 -4 22 6 46 -34 215 -68 282 -36 72 -47 90 -53 83 -4 -3 -7 3 -7 15
0 12 -4 22 -10 22 -5 0 -10 5 -10 10 0 12 -70 80 -82 80 -4 0 -8 -4 -8 -9z
m-1195 -241 c-3 -5 -16 -10 -28 -9 -21 0 -21 1 -2 9 28 12 37 12 30 0z m1295
-130 c0 -5 -2 -10 -4 -10 -3 0 -8 5 -11 10 -3 6 -1 10 4 10 6 0 11 -4 11 -10z
m57 -192 c-3 -8 -6 -5 -6 6 -1 11 2 17 5 13 3 -3 4 -12 1 -19z m-561 -785
c-10 -10 -19 5 -10 18 6 11 8 11 12 0 2 -7 1 -15 -2 -18z m319 -143 c3 -5 1
-10 -4 -10 -6 0 -11 5 -11 10 0 6 2 10 4 10 3 0 8 -4 11 -10z m-78 -142 c-3
-8 -6 -5 -6 6 -1 11 2 17 5 13 3 -3 4 -12 1 -19z"/>
<path d="M5267 1288 c-33 -90 -53 -184 -77 -353 -17 -125 -30 -204 -40 -248
-5 -23 -9 -51 -9 -62 0 -46 17 16 43 155 16 80 31 161 35 180 8 44 40 50 107
21 l46 -21 -6 32 c-7 38 -28 62 -78 94 -33 21 -38 29 -38 62 0 20 9 68 20 106
22 79 20 100 -3 34z"/>
<path d="M2178 1070 c-89 -11 -136 -27 -149 -52 -31 -57 -16 -317 25 -453 80
-262 88 -280 171 -400 91 -130 120 -164 144 -164 l25 -1 -25 28 c-14 15 -36
38 -48 52 -133 146 -210 320 -257 583 -17 96 -28 327 -16 344 4 7 48 22 97 33
50 12 104 25 120 30 27 7 27 8 5 8 -14 0 -55 -4 -92 -8z"/>
<path d="M2891 926 c2 -2 15 -9 29 -15 24 -11 24 -11 6 3 -16 13 -49 24 -35
12z"/>
<path d="M2950 894 c0 -2 14 -10 30 -19 17 -9 30 -12 30 -7 0 4 -13 13 -30 19
-16 6 -30 10 -30 7z"/>
<path d="M3024 852 c3 -5 43 -32 91 -61 47 -28 113 -78 148 -109 90 -83 97
-88 90 -63 -7 28 51 63 175 105 122 40 138 50 51 30 -92 -21 -127 -33 -187
-66 -29 -15 -57 -28 -62 -28 -5 0 -47 29 -92 63 -73 56 -200 137 -214 137 -3
0 -3 -4 0 -8z"/>
<path d="M2311 664 c-1 -56 21 -123 73 -227 83 -161 198 -289 335 -370 45 -27
79 -53 76 -58 -4 -5 2 -9 12 -9 13 0 33 31 72 108 59 116 99 178 168 260 48
56 70 63 98 32 10 -11 23 -20 28 -20 6 0 0 11 -13 25 -13 14 -26 25 -30 25 -4
0 -29 21 -56 47 -75 71 -249 173 -294 173 -8 0 9 -11 38 -25 101 -47 252 -155
252 -180 0 -6 -14 -24 -31 -41 -56 -53 -219 -314 -219 -350 0 -24 -23 -14
-115 50 -178 123 -324 328 -375 526 -17 67 -19 71 -19 34z"/>
<path d="M4654 562 c4 -6 27 -26 51 -43 25 -18 45 -40 45 -48 0 -21 -58 -133
-73 -143 -7 -4 -8 -8 -4 -8 5 0 0 -12 -11 -27 -25 -36 -44 -73 -38 -73 19 0
156 229 156 260 0 9 -26 31 -57 50 -69 42 -78 46 -69 32z"/>
<path d="M3512 420 c7 -11 16 -16 21 -11 12 12 0 31 -19 31 -12 0 -12 -3 -2
-20z"/>
<path d="M4410 391 c0 -13 -61 -86 -138 -164 -57 -58 -254 -201 -302 -220 -13
-5 -13 -6 0 -6 26 -2 215 120 270 173 28 27 68 70 88 95 20 25 49 59 64 76 25
27 37 55 23 55 -3 0 -5 -4 -5 -9z"/>
<path d="M5145 280 c3 -18 11 -38 18 -42 6 -4 8 -8 4 -8 -10 0 42 -73 88 -123
49 -54 43 -38 -17 45 -29 40 -63 93 -76 118 -23 44 -23 44 -17 10z"/>
<path d="M3601 300 c0 -3 22 -50 50 -105 51 -104 59 -96 9 10 -24 53 -59 109
-59 95z"/>
<path d="M3247 218 c-42 -53 -137 -198 -137 -209 0 -23 20 -1 78 86 35 51 73
104 84 117 l20 23 38 -44 c21 -24 55 -77 76 -117 22 -41 45 -74 52 -74 16 0
-34 100 -80 161 -41 53 -83 99 -91 99 -3 0 -21 -19 -40 -42z"/>
<path d="M5102 57 c-19 -54 -17 -57 43 -57 30 0 55 4 55 10 0 10 -69 80 -80
80 -3 0 -11 -15 -18 -33z"/>
</g>
</svg>
